HIERARCHY
ROOT Hips
{
	OFFSET 0.000000 1.471914 24.280096
	CHANNELS 6 Xposition Yposition Zposition Xrotation Yrotation Zrotation
	JOINT Spine
	{
		OFFSET 0.000000 0.900110 1.860670
		CHANNELS 6 Xposition Yposition Zposition Xrotation Yrotation Zrotation
		JOINT Spine1
		{
			OFFSET 0.000000 0.400320 2.270309
			CHANNELS 6 Xposition Yposition Zposition Xrotation Yrotation Zrotation
			JOINT Spine2
			{
				OFFSET 0.000000 0.200920 2.296560
				CHANNELS 6 Xposition Yposition Zposition Xrotation Yrotation Zrotation
				JOINT Spine3
				{
					OFFSET 0.000000 0.000000 2.305330
					CHANNELS 6 Xposition Yposition Zposition Xrotation Yrotation Zrotation
					JOINT Neck
					{
						OFFSET 0.000000 -0.864490 6.051487
						CHANNELS 6 Xposition Yposition Zposition Xrotation Yrotation Zrotation
						JOINT Head
						{
							OFFSET 0.000000 -0.550429 3.121674
							CHANNELS 6 Xposition Yposition Zposition Xrotation Yrotation Zrotation
							End Site
							{
								OFFSET 0.000000 0.000000 3.731750
							}
						}
					}
					JOINT RightShoulder
					{
						OFFSET -0.788280 -1.313800 4.256718
						CHANNELS 6 Xposition Yposition Zposition Xrotation Yrotation Zrotation
						JOINT RightArm
						{
							OFFSET -3.915130 0.000000 0.000000
							CHANNELS 6 Xposition Yposition Zposition Xrotation Yrotation Zrotation
							JOINT RightForeArm
							{
								OFFSET -6.914910 0.000000 0.000000
								CHANNELS 6 Xposition Yposition Zposition Xrotation Yrotation Zrotation
								JOINT RightHand
								{
									OFFSET -6.096219 0.000000 0.000000
									CHANNELS 6 Xposition Yposition Zposition Xrotation Yrotation Zrotation
									JOINT RightHandEnd
									{
										OFFSET -1.749950 0.000000 0.000000
										CHANNELS 6 Xposition Yposition Zposition Xrotation Yrotation Zrotation
										End Site
										{
											OFFSET -1.749950 0.000000 0.000000
										}
									}
									JOINT RightHandThumb1
									{
										OFFSET -0.699980 -1.166630 -0.466648
										CHANNELS 6 Xposition Yposition Zposition Xrotation Yrotation Zrotation
										End Site
										{
											OFFSET -1.690319 -0.452920 0.000000
										}
									}
								}
							}
						}
					}
					JOINT LeftShoulder
					{
						OFFSET 0.788280 -1.313800 4.256718
						CHANNELS 6 Xposition Yposition Zposition Xrotation Yrotation Zrotation
						JOINT LeftArm
						{
							OFFSET 3.915130 0.000000 0.000000
							CHANNELS 6 Xposition Yposition Zposition Xrotation Yrotation Zrotation
							JOINT LeftForeArm
							{
								OFFSET 6.914910 0.000000 0.000000
								CHANNELS 6 Xposition Yposition Zposition Xrotation Yrotation Zrotation
								JOINT LeftHand
								{
									OFFSET 6.096219 0.000000 0.000000
									CHANNELS 6 Xposition Yposition Zposition Xrotation Yrotation Zrotation
									JOINT LeftHandEnd
									{
										OFFSET 1.749950 0.000000 0.000000
										CHANNELS 6 Xposition Yposition Zposition Xrotation Yrotation Zrotation
										End Site
										{
											OFFSET 1.749950 0.000000 0.000000
										}
									}
									JOINT LeftHandThumb1
									{
										OFFSET 0.699980 -1.166630 -0.466648
										CHANNELS 6 Xposition Yposition Zposition Xrotation Yrotation Zrotation
										End Site
										{
											OFFSET 1.690319 -0.452920 0.000000
										}
									}
								}
							}
						}
					}
				}
			}
		}
	}
	JOINT RightUpLeg
	{
		OFFSET -2.338570 -0.252550 -0.551512
		CHANNELS 6 Xposition Yposition Zposition Xrotation Yrotation Zrotation
		JOINT RightLeg
		{
			OFFSET 0.000000 0.000000 -10.744959
			CHANNELS 6 Xposition Yposition Zposition Xrotation Yrotation Zrotation
			JOINT RightFoot
			{
				OFFSET 0.000000 -0.000001 -10.930849
				CHANNELS 6 Xposition Yposition Zposition Xrotation Yrotation Zrotation
				JOINT RightToeBase
				{
					OFFSET 0.000000 -4.087269 -1.487650
					CHANNELS 6 Xposition Yposition Zposition Xrotation Yrotation Zrotation
					End Site
					{
						OFFSET 0.000000 -1.891870 0.000000
					}
				}
			}
		}
	}
	JOINT LeftUpLeg
	{
		OFFSET 2.338570 -0.252550 -0.551512
		CHANNELS 6 Xposition Yposition Zposition Xrotation Yrotation Zrotation
		JOINT LeftLeg
		{
			OFFSET 0.000000 0.000000 -10.744959
			CHANNELS 6 Xposition Yposition Zposition Xrotation Yrotation Zrotation
			JOINT LeftFoot
			{
				OFFSET 0.000000 -0.000001 -10.930849
				CHANNELS 6 Xposition Yposition Zposition Xrotation Yrotation Zrotation
				JOINT LeftToeBase
				{
					OFFSET 0.000000 -4.087269 -1.487650
					CHANNELS 6 Xposition Yposition Zposition Xrotation Yrotation Zrotation
					End Site
					{
						OFFSET 0.000000 -1.891870 0.000000
					}
				}
			}
		}
	}
}
MOTION
Frames: 7
Frame Time: 0.041667
0.000113 26.546307 40.563221 0.887807 19.253139 -77.514963 -0.000002 0.900098 1.860686 30.291513 -12.108716 -1.945554 -0.000008 0.400316 2.270310 -0.000001 -0.000001 0.000003 0.000007 0.200940 2.296553 0.000001 -0.000001 -0.000001 0.000008 -0.000013 2.305319 -0.000007 0.000002 -11.496603 -0.000005 -0.864447 6.051502 7.219014 0.825462 -155.208085 0.000001 -0.550421 3.121708 0.000001 -0.000000 -0.000002 -0.788285 -1.313760 4.256751 -145.155631 53.307997 -32.693541 -3.915109 -0.000008 -0.000004 0.000001 0.000000 -0.000001 -6.914882 0.000004 0.000010 0.000016 0.000004 -31.105470 -6.096205 0.000004 0.000018 -0.000078 -0.000109 -0.000033 -1.749943 -0.000002 -0.000026 -0.000005 0.000003 0.000001 -0.699994 -1.166625 -0.466629 -0.000002 0.000002 -0.000006 0.788270 -1.313797 4.256737 -128.385276 -43.671605 60.736289 3.915162 -0.000013 0.000019 0.000003 0.000000 -0.000001 6.914912 0.000007 -0.000007 0.000007 -0.000005 39.911620 6.096224 0.000020 -0.000002 -0.000064 0.000096 0.000028 1.749934 0.000019 -0.000008 0.000004 0.000001 0.000004 0.699977 -1.166626 -0.466674 0.000010 0.000002 -0.000012 -2.338573 -0.252548 -0.551507 14.733705 -0.570579 -0.948512 0.000006 0.000002 -10.744972 16.945761 -1.379404 -1.215302 -0.000002 0.000012 -10.930866 0.000007 -0.000002 0.000002 0.000011 -4.087267 -1.487641 -0.000000 -0.000000 0.000001 2.338572 -0.252553 -0.551443 22.511643 -1.008602 -1.430647 -0.000002 -0.000013 -10.744933 23.669754 -0.499060 -1.795396 0.000002 0.000008 -10.930858 0.000007 -0.000007 -0.000002 -0.000005 -4.087247 -1.487652 0.000003 -0.000000 -0.000001 
0.000108 26.546310 40.563320 1.868865 19.394530 -78.291433 -0.000003 0.900098 1.860697 30.532465 -12.989294 -2.138980 -0.000008 0.400315 2.270308 -0.000004 -0.000001 0.000001 0.000011 0.200938 2.296556 0.000000 -0.000000 -0.000000 0.000010 -0.000011 2.305323 -0.000003 0.000002 -10.817824 -0.000006 -0.864450 6.051503 9.291841 0.202283 -156.134368 0.000000 -0.550421 3.121712 0.000000 0.000001 -0.000002 -0.788284 -1.313761 4.256756 -141.912575 50.915601 -36.719360 -3.915109 -0.000011 0.000004 -0.000001 -0.000000 -0.000000 -6.914879 0.000002 0.000006 0.000019 0.000009 -27.276825 -6.096210 0.000002 0.000015 -0.000078 -0.000108 -0.000035 -1.749950 0.000002 -0.000012 0.000001 0.000003 0.000002 -0.699999 -1.166621 -0.466626 -0.000003 0.000003 -0.000007 0.788272 -1.313804 4.256739 -127.933131 -45.991748 59.248333 3.915165 -0.000013 0.000015 0.000003 0.000002 0.000001 6.914912 0.000006 -0.000014 0.000011 -0.000007 37.100409 6.096223 0.000023 -0.000006 -0.000058 0.000095 0.000026 1.749939 0.000021 -0.000011 0.000003 -0.000000 0.000002 0.699978 -1.166625 -0.466672 0.000012 0.000003 -0.000014 -2.338573 -0.252549 -0.551502 16.132649 -1.223866 -1.125544 0.000010 0.000002 -10.744968 15.907464 -0.686698 -1.399400 -0.000000 0.000012 -10.930864 0.000012 -0.000002 0.000002 0.000013 -4.087265 -1.487645 0.000001 0.000000 -0.000000 2.338573 -0.252551 -0.551444 21.497609 -1.408178 -1.487851 -0.000007 -0.000013 -10.744939 25.375510 -0.231927 -2.226930 0.000003 0.000007 -10.930856 0.000007 -0.000007 -0.000001 -0.000003 -4.087244 -1.487653 -0.000005 0.000001 -0.000001 
0.000118 26.546286 40.563187 1.044170 20.333775 -77.975215 -0.000002 0.900095 1.860702 30.713527 -11.390397 -2.084082 -0.000003 0.400316 2.270304 -0.000004 -0.000001 0.000001 0.000010 0.200940 2.296560 0.000002 -0.000001 -0.000001 0.000011 -0.000011 2.305319 -0.000004 0.000003 -9.935342 -0.000006 -0.864451 6.051512 8.412756 1.068134 -163.146240 0.000001 -0.550424 3.121708 0.000003 -0.000000 -0.000003 -0.788284 -1.313762 4.256767 -142.840989 50.782702 -36.489753 -3.915108 -0.000010 -0.000000 -0.000002 -0.000002 0.000000 -6.914882 0.000006 0.000018 0.000017 0.000005 -29.275646 -6.096211 -0.000000 0.000020 -0.000085 -0.000108 -0.000042 -1.749947 -0.000001 -0.000020 -0.000004 -0.000001 0.000004 -0.699993 -1.166622 -0.466626 -0.000002 0.000000 -0.000006 0.788268 -1.313800 4.256745 -124.206020 -42.964041 61.276858 3.915161 -0.000016 0.000015 -0.000003 -0.000002 0.000002 6.914915 0.000002 -0.000017 0.000007 -0.000011 33.789933 6.096222 0.000021 -0.000004 -0.000061 0.000096 0.000028 1.749937 0.000022 -0.000004 0.000005 -0.000003 0.000001 0.699975 -1.166622 -0.466666 0.000010 -0.000002 -0.000017 -2.338576 -0.252551 -0.551499 18.902151 -1.379986 -1.281902 0.000006 0.000002 -10.744968 14.139768 -1.030185 -1.251021 -0.000002 0.000012 -10.930864 0.000009 -0.000003 0.000003 0.000011 -4.087266 -1.487644 0.000006 -0.000001 0.000001 2.338570 -0.252553 -0.551440 20.568416 -2.343652 -1.395359 -0.000003 -0.000013 -10.744941 29.868475 0.009834 -3.022990 0.000002 0.000007 -10.930856 0.000007 -0.000008 -0.000002 -0.000005 -4.087247 -1.487651 0.000003 0.000000 -0.000001 
0.000125 26.546249 40.563122 0.489331 21.762298 -78.002099 -0.000002 0.900098 1.860684 32.056909 -10.863751 -2.427938 -0.000007 0.400316 2.270308 -0.000004 -0.000000 0.000002 0.000014 0.200939 2.296556 0.000003 -0.000000 0.000000 0.000011 -0.000011 2.305326 -0.000005 0.000004 -9.389718 -0.000004 -0.864448 6.051509 7.828706 2.676064 -166.288100 -0.000001 -0.550422 3.121716 0.000003 0.000001 -0.000004 -0.788283 -1.313760 4.256758 -147.201273 52.105341 -34.267653 -3.915105 -0.000013 -0.000000 -0.000001 -0.000004 -0.000001 -6.914875 0.000004 0.000010 0.000017 -0.000001 -31.928915 -6.096209 0.000007 0.000019 -0.000077 -0.000114 -0.000038 -1.749946 0.000003 -0.000013 0.000002 -0.000002 -0.000000 -0.699995 -1.166623 -0.466619 0.000003 -0.000000 -0.000007 0.788266 -1.313798 4.256743 -124.050374 -44.925200 60.282082 3.915155 -0.000016 0.000019 -0.000003 0.000002 0.000003 6.914907 0.000002 -0.000009 0.000013 -0.000012 32.323655 6.096223 0.000016 -0.000008 -0.000060 0.000099 0.000028 1.749933 0.000015 -0.000007 -0.000000 -0.000003 0.000001 0.699971 -1.166628 -0.466669 0.000005 0.000001 -0.000015 -2.338576 -0.252550 -0.551510 21.969520 -1.738950 -1.662897 0.000004 0.000003 -10.744967 13.104512 -1.296215 -1.330010 0.000002 0.000013 -10.930861 0.000005 -0.000002 0.000003 0.000013 -4.087265 -1.487643 0.000000 -0.000000 0.000000 2.338568 -0.252551 -0.551449 18.958696 -1.934460 -1.446936 -0.000003 -0.000011 -10.744939 37.319788 -0.854945 -3.734334 0.000001 0.000010 -10.930855 0.000003 -0.000007 -0.000001 -0.000005 -4.087247 -1.487652 0.000002 -0.000000 -0.000001 
0.000095 26.546251 40.563072 1.439869 22.333177 -81.456344 -0.000005 0.900097 1.860691 33.242012 -8.825380 -2.835994 -0.000009 0.400316 2.270306 -0.000003 -0.000001 0.000001 0.000008 0.200939 2.296560 0.000002 -0.000001 0.000000 0.000010 -0.000010 2.305326 -0.000003 0.000003 -7.277922 -0.000005 -0.864446 6.051513 5.229755 5.015499 -169.823433 0.000002 -0.550419 3.121704 -0.000001 0.000000 -0.000002 -0.788285 -1.313761 4.256760 -145.936240 51.949422 -37.473809 -3.915099 -0.000014 -0.000007 -0.000003 -0.000004 0.000000 -6.914877 0.000004 0.000006 0.000017 0.000002 -30.975915 -6.096209 0.000001 0.000012 -0.000084 -0.000108 -0.000038 -1.749948 0.000002 -0.000009 -0.000001 0.000004 0.000000 -0.699998 -1.166624 -0.466619 -0.000002 0.000005 -0.000008 0.788268 -1.313800 4.256744 -124.888329 -47.613822 58.954361 3.915162 -0.000013 0.000019 0.000002 -0.000000 -0.000000 6.914904 0.000003 -0.000005 0.000009 -0.000013 28.027201 6.096225 0.000021 -0.000008 -0.000066 0.000095 0.000025 1.749933 0.000020 -0.000008 0.000003 -0.000003 0.000003 0.699980 -1.166628 -0.466672 0.000010 -0.000000 -0.000015 -2.338577 -0.252550 -0.551508 23.255904 -1.692812 -2.000661 0.000009 0.000001 -10.744966 12.519178 -2.349939 -1.381045 -0.000003 0.000013 -10.930863 0.000012 -0.000002 0.000002 0.000011 -4.087266 -1.487641 0.000000 -0.000000 0.000002 2.338570 -0.252551 -0.551444 17.487116 -0.766633 -1.521233 -0.000003 -0.000012 -10.744946 41.733501 -1.342903 -3.735028 0.000004 0.000009 -10.930857 0.000005 -0.000007 -0.000002 -0.000004 -4.087244 -1.487652 0.000003 0.000001 -0.000002 
0.000134 26.546249 40.563103 0.872857 21.700930 -78.930390 0.000001 0.900097 1.860695 29.439454 -9.663610 -1.950930 -0.000010 0.400315 2.270312 -0.000005 -0.000001 0.000002 0.000010 0.200940 2.296562 0.000001 -0.000001 -0.000000 0.000013 -0.000011 2.305323 -0.000005 0.000002 -6.664710 -0.000003 -0.864448 6.051509 6.636573 -0.790550 -172.380615 -0.000000 -0.550422 3.121716 0.000002 -0.000000 -0.000003 -0.788283 -1.313760 4.256755 -148.503612 53.077533 -32.442869 -3.915105 -0.000010 -0.000004 -0.000000 -0.000001 -0.000001 -6.914873 0.000005 0.000007 0.000017 0.000003 -30.218471 -6.096206 0.000004 0.000011 -0.000076 -0.000113 -0.000033 -1.749945 0.000004 -0.000015 0.000000 -0.000000 0.000003 -0.699994 -1.166622 -0.466618 0.000002 0.000001 -0.000008 0.788265 -1.313799 4.256742 -116.035543 -41.879090 64.388289 3.915157 -0.000015 0.000023 -0.000005 0.000000 -0.000001 6.914907 0.000004 -0.000016 0.000010 -0.000018 23.790739 6.096229 0.000017 -0.000012 -0.000064 0.000098 0.000026 1.749936 0.000020 -0.000011 -0.000002 -0.000002 0.000004 0.699980 -1.166627 -0.466676 0.000007 -0.000003 -0.000014 -2.338572 -0.252550 -0.551501 24.332754 -3.840367 -1.604194 0.000011 0.000002 -10.744968 13.292240 -1.698945 -1.706145 0.000002 0.000013 -10.930866 0.000009 -0.000002 0.000002 0.000014 -4.087267 -1.487643 0.000002 -0.000000 0.000001 2.338571 -0.252553 -0.551436 13.208414 -0.687707 -0.885992 -0.000004 -0.000013 -10.744936 46.583885 -2.114393 -3.256766 0.000001 0.000010 -10.930856 0.000014 -0.000006 -0.000001 -0.000006 -4.087246 -1.487651 0.000000 0.000001 -0.000002 
0.000160 26.546242 40.563274 0.163987 21.100063 -79.232988 -0.000001 0.900096 1.860693 27.784776 -7.775344 -2.134627 -0.000008 0.400315 2.270302 -0.000003 -0.000001 0.000002 0.000011 0.200939 2.296556 0.000001 0.000000 -0.000001 0.000011 -0.000012 2.305319 -0.000005 0.000002 -4.395920 -0.000002 -0.864449 6.051511 8.637853 -7.498578 -169.940216 -0.000001 -0.550423 3.121716 0.000001 -0.000000 -0.000002 -0.788283 -1.313761 4.256763 -154.829009 55.394128 -26.550877 -3.915105 -0.000011 -0.000004 0.000002 -0.000002 0.000000 -6.914879 0.000005 0.000018 0.000017 0.000003 -32.124268 -6.096207 0.000004 0.000012 -0.000077 -0.000107 -0.000039 -1.749949 0.000003 -0.000012 0.000000 -0.000000 0.000001 -0.699996 -1.166623 -0.466622 -0.000000 0.000001 -0.000005 0.788268 -1.313799 4.256745 -112.021434 -40.483074 65.512442 3.915159 -0.000015 0.000015 -0.000002 0.000001 0.000000 6.914911 0.000003 -0.000015 0.000010 -0.000021 20.412305 6.096223 0.000018 -0.000004 -0.000058 0.000096 0.000026 1.749933 0.000018 -0.000007 -0.000001 -0.000000 0.000001 0.699973 -1.166628 -0.466673 0.000009 0.000002 -0.000016 -2.338573 -0.252551 -0.551501 24.564796 -3.606823 -1.876340 0.000010 0.000002 -10.744966 14.485907 -1.457376 -1.936373 -0.000004 0.000012 -10.930866 0.000009 -0.000002 0.000002 0.000012 -4.087267 -1.487642 0.000001 -0.000000 0.000001 2.338573 -0.252553 -0.551439 10.028848 0.817847 -0.782410 0.000000 -0.000012 -10.744938 48.893404 -1.884644 -2.731788 0.000000 0.000009 -10.930856 0.000003 -0.000007 -0.000001 -0.000007 -4.087247 -1.487651 -0.000000 0.000000 -0.000001 
